<?xml version="1.0" encoding="utf-8"?>
<!-- Generator: Adobe Illustrator 26.0.2, SVG Export Plug-In . SVG Version: 6.00 Build 0)  -->
<svg version="1.1" id="Layer_1" xmlns="http://www.w3.org/2000/svg" xmlns:xlink="http://www.w3.org/1999/xlink" x="0px" y="0px"
	 viewBox="0 0 1920 1080" style="enable-background:new 0 0 1920 1080;" xml:space="preserve">
<style type="text/css">
	.st0{fill:#FAFAFA;stroke:#E6E6E6;stroke-width:0.1214;stroke-miterlimit:10;}
	.st1{fill:none;stroke:#000000;stroke-width:0.2428;stroke-miterlimit:1;}
	.st2{fill:none;stroke:#000000;stroke-width:0.2428;stroke-miterlimit:10;}
	.st3{fill:#D1D3D4;}
	.st4{fill:#FFFFFF;}
	.st5{fill:#F2F2F2;}
	.st6{fill:none;stroke:#000000;stroke-width:0.3271;stroke-miterlimit:10;}
</style>
<g>
	<path class="st0" d="M589.75,530.99c-40.44,0.17-79.76-2.67-119.39-7.24c-40.23-5.05-79.81-11.42-119.39-17.96
		c-39.58-6.54-79.17-12.92-119.39-17.97c-39.64-4.57-78.95-7.41-119.39-7.25c19.41-22.61,41.51-43.93,67.29-64.24
		c-28.95-20.89-59.05-41.11-90.7-60.61c-7.81-4.77-15.74-9.49-23.77-14.13c48.63,1.12,95.8,5.95,142.99,12.79
		c48.27,7.41,95.64,16.44,142.99,25.63c47.35,9.19,94.72,18.22,142.99,25.62c47.18,6.83,94.36,11.66,142.99,12.78
		c-7.87,18.76-15.73,37.52-23.6,56.29C605.49,493.47,597.62,512.23,589.75,530.99z"/>
	<path class="st1" d="M350.98,392.6c91.74,17.58,184.02,35.07,281.26,37.08C535,427.67,442.72,410.18,350.98,392.6
		c-85.73-16.49-171.72-32.81-262.21-36.86"/>
	<path class="st2" d="M124.4,466.48c77.8,1.86,152.2,14.13,226.57,26.73c79.84,13.46,159.78,26.57,243.5,26.52
		c-83.72,0.05-163.66-13.06-243.5-26.52C276.6,480.61,202.2,468.34,124.4,466.48z"/>
</g>
<g>
	<path class="st0" d="M1283.25,436.39c40.44,0.17,79.76-2.67,119.39-7.24c40.23-5.05,79.81-11.42,119.39-17.96
		c39.58-6.54,79.17-12.92,119.39-17.97c39.64-4.57,78.95-7.41,119.39-7.25c-19.41-22.61-41.51-43.93-67.29-64.24
		c28.95-20.89,59.05-41.11,90.7-60.61c7.81-4.77,15.74-9.49,23.77-14.13c-48.63,1.12-95.8,5.95-142.99,12.79
		c-48.27,7.41-95.64,16.44-142.99,25.63c-47.35,9.19-94.72,18.22-142.99,25.62c-47.18,6.83-94.36,11.66-142.99,12.78
		c7.87,18.76,15.73,37.52,23.6,56.29S1275.38,417.63,1283.25,436.39z"/>
	<path class="st1" d="M1522.02,297.99c-91.74,17.58-184.02,35.07-281.26,37.08C1338,333.06,1430.28,315.57,1522.02,297.99
		c85.73-16.49,171.72-32.81,262.21-36.86"/>
	<path class="st2" d="M1748.6,371.88c-77.8,1.86-152.2,14.13-226.57,26.73c-79.84,13.46-159.78,26.57-243.5,26.52
		c83.72,0.05,163.66-13.06,243.5-26.52C1596.4,386,1670.8,373.73,1748.6,371.88z"/>
</g>
<path class="st3" d="M442.96,471.96c0,0,16.14-10.72,73.37,17.28c57.23,28,73.43,41.76,73.43,41.76l67.08-161.54L442.96,471.96z"/>
<path class="st3" d="M1235.99,323.54c0,0,29.1,15.68,63.4,21.38c41.64,6.92,96.53,1.26,96.53,1.26l-112.68,90.2L1235.99,323.54z"/>
<g>
	<g>
		<path class="st4" d="M443.06,471.87c0-41.88,0-83.76,0-125.64c316.16-60.03,636.6,60.07,952.76,0.04c0,41.88,0,83.76,0,125.64
			C1079.65,531.94,759.22,411.84,443.06,471.87z"/>
		<path class="st5" d="M1395.72,346.36c0,20.92,0,41.84,0,62.75s0,41.84,0,62.75c-157.19,29.83-317.51,15.67-476.28-0.04
			c-158.77-15.7-319.09-29.87-476.28-0.04c0-20.92,0-41.84,0-62.75s0-41.84,0-62.75c157.19-29.83,317.51-15.67,476.28,0.04
			C1078.21,362.02,1238.53,376.19,1395.72,346.36 M1395.92,346.18c-157.25,29.88-317.64,15.71-476.48,0
			c-158.84-15.71-319.23-29.88-476.48,0c0,20.96,0,41.93,0,62.89c0,20.96,0,41.93,0,62.89c157.25-29.88,317.64-15.71,476.48,0
			c158.84,15.71,319.23,29.88,476.48,0c0-20.96,0-41.93,0-62.89C1395.92,388.11,1395.92,367.15,1395.92,346.18L1395.92,346.18z"/>
	</g>
	<path class="st6" d="M442.96,358.76c316.23-60.08,636.74,60.08,952.96,0C1079.7,418.84,759.18,298.68,442.96,358.76z"/>
	<path class="st6" d="M442.96,459.38c316.22-60.08,636.74,60.08,952.96,0C1079.7,519.46,759.18,399.3,442.96,459.38z"/>
</g>
</svg>
